<?xml version="1.0" encoding="UTF-8"?>
<svg id="Layer_1" xmlns="http://www.w3.org/2000/svg" version="1.1" viewBox="0 0 160 160">
  <!-- Generator: Adobe Illustrator 29.3.1, SVG Export Plug-In . SVG Version: 2.1.0 Build 151)  -->
  <defs>
    <style>
      .st0 {
        fill: #010101;
      }

      .st1 {
        fill: #372220;
      }

      .st2 {
        font-size: 19.46px;
      }

      .st2, .st3, .st4, .st5, .st6, .st7 {
        fill: #fff;
      }

      .st2, .st4, .st8, .st5, .st6, .st7 {
        isolation: isolate;
      }

      .st2, .st4, .st5 {
        font-family: Algerian, Algerian;
      }

      .st3, .st9, .st10, .st11, .st12 {
        stroke-miterlimit: 10;
      }

      .st3, .st10, .st11, .st12 {
        stroke: #fff;
        stroke-width: .5px;
      }

      .st13 {
        fill: #ee3d3b;
      }

      .st14 {
        fill: #351e1d;
      }

      .st15 {
        fill: #eae7eb;
      }

      .st4 {
        font-size: 16.22px;
      }

      .st16 {
        fill: #050202;
      }

      .st17 {
        fill: #f6921e;
      }

      .st18 {
        fill: #392020;
      }

      .st19 {
        fill: #040303;
      }

      .st20 {
        fill: #361c1c;
      }

      .st5 {
        font-size: 18.06px;
      }

      .st21 {
        fill: #282664;
      }

      .st9 {
        fill: none;
        stroke: #fff100;
        stroke-width: 2px;
      }

      .st22 {
        fill: #15152c;
      }

      .st23 {
        fill: #3f2424;
      }

      .st6 {
        font-size: 17.46px;
      }

      .st6, .st7 {
        font-family: Jokerman-Regular, Jokerman;
      }

      .st24 {
        fill: #190d0d;
      }

      .st25 {
        fill: #020101;
      }

      .st26 {
        fill: #2d2a29;
      }

      .st27 {
        fill: #352b2b;
      }

      .st7 {
        font-size: 12.03px;
      }

      .st10 {
        fill: #352928;
      }

      .st28 {
        fill: #130e13;
      }

      .st11 {
        fill: #302929;
      }

      .st29 {
        fill: #d0232e;
      }

      .st12 {
        fill: #3e2827;
      }
    </style>
  </defs>
  <path class="st13" d="M153.77,81.82c-.03,19.24-6.66,36.12-19.84,50.2-14.58,15.56-32.72,23.59-54,23.6-40.52.02-74.14-32.46-74-74.18C6.06,40.52,39.06,7.7,79.87,7.81c41.56-.15,73.97,33.69,73.9,74.01h0Z"/>
  <path class="st21" d="M153.77,81.82c-.03,19.24-6.66,36.12-19.84,50.2-14.58,15.56-32.72,23.59-54,23.6-40.52.02-74.14-32.46-74-74.18C6.06,40.52,39.06,7.7,79.87,7.81c41.56-.15,73.97,33.69,73.9,74.01h0Z"/>
  <path class="st29" d="M145.11,81.52c-.08,36.16-29.53,65.42-65.42,65.63-37.43.22-66.26-29.8-66.55-65.46-.31-36.75,29.79-67.22,67.48-66.51,34.64.65,64.78,29.28,64.49,66.34h0Z"/>
  <path class="st26" d="M141.17,81.15c.34,34.19-28.08,61.54-60.82,62.04-35.45.54-63.4-28.21-63.31-62.16.09-33.85,27.88-62.58,63.49-61.93,32.6.59,60.82,27.8,60.64,62.05h0Z"/>
  <path class="st3" d="M59.79,40.01c.38,4.87-4.76,8.94-9.31,8.93-4.43-.01-8.13-3.88-8.34-8.34-.23-5.03,5.02-9.11,9.34-9.12,4.94-.02,8.55,4.59,8.31,8.54h0Z"/>
  <path class="st3" d="M97.14,31.05c-.09,1.77-.79,3.66-2.76,4.83-.73.43-.91.87-.62,1.68.43,1.19.72,2.44,1.08,3.66.21.7-.06.99-.75.87-1.18-.2-2.36-.44-3.54-.66-.54-.11-.61-.58-.73-.99-.33-1.12-.65-2.24-.96-3.36-.18-.66-.59-.94-1.28-.92-.76.02-.84.56-.95,1.1-.09.43-.21.85-.31,1.27-.31,1.28-1.12,1.81-2.44,1.58-2.51-.43-2.51-.45-2.01-2.91.84-4.1,1.67-8.2,2.46-12.31.18-.91.54-1.23,1.48-1.02,2.59.55,5.25.83,7.76,1.75,2.18.8,3.52,2.7,3.56,5.42h0Z"/>
  <path class="st3" d="M68.32,36.11c.22,1.26.43,2.63.69,3.99.15.79-.15,1.16-.91,1.28-.83.13-1.65.28-2.48.43-.67.12-1.03-.15-1.15-.82-.83-4.7-1.67-9.4-2.51-14.1-.13-.74.1-1.16.94-1.23.8-.06,1.58-.26,2.37-.39.74-.12,1.17.12,1.28.93.18,1.22.45,2.44.65,3.66.11.68.44.93,1.13.82,1.34-.21,1.93-.69,2.21-2.04.24-1.18.42-2.37.59-3.56.08-.57.28-.97.89-1.06,1.01-.16,2.02-.31,3.02-.48.85-.14,1.15.19.96,1.03-.51,2.28-.91,4.58-1.53,6.82-.22.81-.07,1.31.38,1.87,1.33,1.64,2.66,3.29,3.99,4.93.71.88.65,1.1-.44,1.32-1.07.22-2.16.35-3.23.55-.64.12-1.04-.18-1.39-.65-1.03-1.37-2.11-2.7-3.09-4.1-.55-.79-1.22-.47-1.87-.35-.56.1-.56.59-.52,1.15h0Z"/>
  <path class="st3" d="M113.68,35.28c-.52,2.49-1.04,4.99-1.55,7.49-.49,2.39-.96,4.78-1.44,7.17-.31,1.58-.51,1.65-1.89.75-.31-.2-.6-.43-.92-.59-1.18-.58-2.01-1.28-1.39-2.78.22-.53-.12-.96-.61-1.26-1.12-.69-2.23-1.38-3.33-2.09-.67-.43-1.2-.13-1.67.3-.66.61-1.28.56-1.97.08-.66-.46-1.35-.86-2.02-1.3-.92-.6-.94-.86-.07-1.49,2.32-1.7,4.65-3.39,6.97-5.09,1.68-1.22,3.38-2.4,5.02-3.67.78-.61,1.45-.69,2.25-.08.64.48,1.33.89,1.99,1.34.42.29.66.68.63,1.22h0Z"/>
  <path class="st3" d="M28.42,52.84c-.1-2.88,3.36-7.62,7.13-7.2.25.03.51.03.76.09,1.72.41,1.89.88.85,2.29-.24.32-.46.66-.66,1-.4.69-.88.99-1.77.84-1.16-.19-2.19.86-2.19,2.04s.71,1.6,1.73,1.11c.93-.44,1.67-1.17,2.47-1.8.52-.41,1.05-.78,1.63-1.09,2.14-1.16,4-1.09,5.67.37,1.64,1.43,2.02,3.27,1.29,5.27-.83,2.29-2.22,4.18-4.45,5.31-1.34.68-2.72.69-4.13.15-.89-.34-1.02-.89-.58-1.61.44-.71.99-1.35,1.49-2.02.34-.45.82-.43,1.3-.35,1.02.17,1.68-.36,2.2-1.12.41-.6.6-1.31.04-1.92-.56-.61-1.29-.55-1.9-.13-.9.62-1.74,1.33-2.59,2.01-1.05.84-2.2,1.36-3.58,1.44-2.37.14-4.92-2.09-4.68-4.68h0Z"/>
  <path class="st3" d="M116.41,59.41c-.81.03-3-2.92-2.72-3.5.12-.24.39-.42.61-.59,2.58-1.91,5.14-3.82,7.74-5.69.69-.49.81-.95.29-1.61-.61-.77-1.18-1.58-1.79-2.34-.38-.46-.37-.81.12-1.19.66-.52,1.31-1.04,1.99-1.53.65-.46,1.06-.29,1.46.26,2.48,3.38,4.96,6.75,7.45,10.12.37.51.36.92-.17,1.3-.68.49-1.34,1.01-2.01,1.5-.55.39-.98.12-1.32-.31-.58-.75-1.13-1.52-1.68-2.29-.47-.66-.91-.74-1.61-.19-2.49,1.9-5.04,3.72-7.56,5.56-.29.21-.61.39-.79.51h0Z"/>
  <path class="st17" d="M122.96,71.82c1.24-.37,2.4-.41,3.54-.48.89-.05,1.41-.42,1.73-1.22.35-.88.77-1.73,1.17-2.59.09-.19.12-.48.36-.5.33-.03.37.3.47.52.4.86.83,1.71,1.16,2.59.31.85.86,1.16,1.74,1.19.95.03,1.89.18,2.83.29.2.02.48-.03.55.24.08.25-.15.39-.3.53-.7.64-1.39,1.29-2.13,1.88-.67.54-.88,1.12-.68,2,.26,1.12.64,2.23.65,3.52-1.17-.45-2.15-1.08-3.12-1.69-.77-.48-1.45-.52-2.22-.01-.82.54-1.7.99-2.55,1.48-.18.1-.39.27-.59.08-.16-.15-.01-.34.02-.51.21-.96.39-1.93.64-2.88.21-.84,0-1.44-.68-2.01-.88-.73-1.8-1.44-2.59-2.44h0Z"/>
  <path class="st17" d="M33.61,82.1c-1.18-.67-2.17-1.19-3.12-1.78-.77-.49-1.45-.48-2.23,0-.97.61-1.99,1.13-3.26,1.84.28-1.32.46-2.35.73-3.35.26-1.01.17-1.83-.77-2.49-.68-.48-1.27-1.09-1.88-1.66-.18-.16-.49-.3-.38-.6.11-.29.44-.21.67-.23.94-.12,1.88-.24,2.82-.3.78-.05,1.28-.39,1.58-1.11.46-1.1.98-2.18,1.53-3.4.76,1.05,1.15,2.11,1.56,3.15.37.93.93,1.39,1.95,1.4.87,0,1.74.16,2.61.26.24.03.56-.03.63.29.05.24-.19.37-.35.52-.71.63-1.4,1.28-2.12,1.88-.63.52-.82,1.09-.63,1.92.26,1.12.64,2.23.65,3.66h0Z"/>
  <path class="st11" d="M50.94,44.38c-2.24.01-4.13-1.99-4.12-4.34.01-2.11,2.04-4.05,4.21-4.03,2.29.02,4.12,1.94,4.14,4.33.02,2.27-1.82,4.03-4.22,4.04h0Z"/>
  <path class="st10" d="M89.92,32.74c-.15-.01-.44-.03-.73-.06-1.46-.19-1.66-.46-1.38-1.92.02-.11.04-.21.06-.32.41-2.28.52-2.36,2.74-1.75,1.37.37,1.94,1.18,1.72,2.46-.21,1.24-.78,1.64-2.42,1.6h0Z"/>
  <path class="st12" d="M108.74,38.82c-.28,1.19-.56,2.39-.85,3.59-.13.52-.48.55-.92.35-2.37-1.05-2.45-1.57-.45-3.13.51-.4,1.02-.82,1.54-1.2.16-.12.36-.34.56-.14.11.1.08.33.12.53h0Z"/>
  <path class="st15" d="M79.85,43.46c21.32.08,38.33,17.23,38.23,38.54-.1,21-17.36,38.03-38.49,37.97-21.04-.06-38.19-17.43-37.97-38.71.22-20.98,17.28-37.72,38.22-37.8h0Z"/>
  <path class="st0" d="M56.02,103.36c-1.48-3.19-2.67-6.48-3.02-10.02v.02c2.46.61,4.91.5,7.33-.25.62-.19,1.19-.12,1.79.19,1.46.75,2.95,1.42,4.42,2.15.7.34.89.13.81-.6-.1-.94-.11-1.89-.21-2.83-.07-.66.05-1.16.76-1.35,1.41-.38,1.73-1.34,1.69-2.71-.06-2.33.09-4.66.09-7,0-.82.21-1.37,1-1.73.75-.35,1.46-.81,2.15-1.28.85-.57.98-.16.95.61-.09,2.73-.17,5.47-.24,8.2,0,.37-.25.86.49.97.45.06.27.61.26.95-.04,4.96.17,9.91.7,14.85.33,3.08.86,6.13,1.5,9.16.25,1.17.02,1.2-1.15,1.18-2.44-.04-3.55-1.34-4.4-3.49-1.37-3.48-2.4-7.02-3.02-10.69-.13-.77-.51-1.11-1.16-1.4-1.2-.53-2.37-1.11-3.56-1.68-.26-.13-.62-.28-.47-.62.18-.4.52-.08.74.03,1.34.64,2.66,1.31,4.02,1.99.21-.94-.11-1.42-.91-1.78-1.72-.76-3.4-1.62-5.27-2.53.23,2.66.73,5.05,1.42,7.42,1.06,3.66,2.72,7.06,4.66,10.32-.25.55-.71.34-1.04.19-3.3-1.45-6.53-3.02-8.95-5.84-.64-.74-.81-1.7-1.42-2.43h0Z"/>
  <path class="st16" d="M101.8,97.47c.48-.91.16-1.36-.8-1.62-2.02-.55-3.79-1.65-5.61-2.65-.51-.28-.45-.68-.43-1.12.14-3.02.24-6.05.02-9.07,0-.07,0-.15-.01-.22-.08-1.73.75-2.78,2.49-3.15,3.26-.68,3.25-.68,5.29,1.96,1.25,1.61,2.44,3.28,3.84,4.74,1.1,1.14.88,2.4.81,3.67-.28,5.18-1.81,9.99-4.29,14.52-.07.13-.16.24-.24.36-.3.53-.59,1.07-.92,1.59-.12.19-.28.65-.61.15-.45-.56-.06-1.05.19-1.51,1.26-2.39,2.43-4.82,3.24-7.4.75-2.38,1.14-4.82,1.31-7.3.04-.61-.06-1.23.31-1.8.22-.33.06-.68-.19-.99-1.41-1.71-2.78-3.45-4.39-5.25.13,1.31.05,2.46.21,3.62.28,2.04-.16,4.07-.26,6.1-.02.47-.08.95-.17,1.41-.13.67.09,1.17.73,1.41,1,.38,1.15,1.11.91,2.04-.93,3.54-2.06,6.99-3.85,10.2-.54.96-1.21,1.82-2.22,2.34-.17.04-.33.05-.4-.16-.3-.49.09-.82.29-1.18,1.69-2.96,3.22-6,4.08-9.32.13-.49.36-.95.67-1.36h0Z"/>
  <path class="st28" d="M91.02,103.97c-.91,2.87-1.78,5.75-3.13,8.46-.29.58-.64.9-1.28,1.02-1.43.26-2.86.45-4.32.48-.75.01-.95-.26-.84-.96.16-1.15.27-2.31.4-3.46.59-4.87.74-9.75.71-14.65.02-.11.08-.19.18-.24,1.33-.38,2.66-.78,3.99-1.14.58-.16.89-.45.82-1.08-.01-.11-.02-.22,0-.33.81-3.11-1.17-4.72-3.57-6.38,0,1.83,0,3.52,0,5.21,0,1.71.02,1.66-1.54.96-.9-.4-1.19-.93-1.19-1.92.02-4.78-.06-9.56-.1-14.34,0-.35.13-.79-.2-1.04-.85-.63-.79-1.5-.7-2.37.19-1.81-1.19-2.84-2-4.17-.17.71-.48,1.39.09,2.04.12.13.09.41.08.62-.08,5.84-.15,11.67-.25,17.51,0,.42.25,1.15-.39,1.16s-1.19-.42-1.19-1.26c.02-2.48-.04-4.96.02-7.44.02-.91-.22-1.57-.97-2.02-.74-.45-.87-1.07-.78-1.86.12-1.12.18-2.25.25-3.38.04-.7.15-1.27.73-1.84.68-.67.29-1.74.45-2.62.08-.42-.02-.84.39-1.19,1.39-1.18,1.44-1.15,2.52.35.93,1.28,1.56,2.6,1.41,4.22-.04.47.05.95.46,1.29.7.6.81,1.38.81,2.26,0,2.81.09,5.62.09,8.43,0,.97.38.98.99.53.75-.55,1.24-.28,1.87.28,1.11,1,2.08,2.16,3.35,2.96.36,1.29.05,2.6.03,3.9-.01.77.16.99.9.7.91-.35,1.85-.65,2.76-1.02.73-.29.94-.14.89.68-.16,2.58-.54,5.13-.84,7.69-.24.72.03,1.55-.51,2.19-.17.56-.4,1.12-.38,1.72h0Z"/>
  <path class="st19" d="M77.89,64.56c-.34.11-.62,0-.91-.21-1.34-.98-2.59-2.09-4.06-2.89-.21-.12-.51-.24-.42-.55.09-.31.41-.28.65-.25.57.09,1.15.18,1.71.36.67.22.76-.03.64-.61-.07-.33-.41-.72.01-.99.41-.26.85-.09,1.23.16.06.04.13.07.18.12,1.25,1.38,2.58,1.15,3.97.08-.41-.61-1.09-.92-1.78-1.18-1.77-.69-3.55-1.33-5.32-2.02-.34-.13-.97-.09-.86-.62.11-.55.7-.59,1.18-.52,1.48.22,2.95.47,4.42.71,2.58.43,5.17.84,7.75,1.32.55.1.99.02,1.46-.2,1.22-.56,2.46-1.09,3.68-1.66,1.11-.52,2.23-.28,3.3.04.77.23.59.83.19,1.29-.62.74-1.48,1.19-2.31,1.62-.87.45-1.76.9-2.7,1.17-.91.27-1.26.79-1.42,1.68-.23,1.29-.6,2.55-.89,3.83-.12.51-.35.87-.92.92-.74.06-.53-.57-.65-.92-.16-.44-.21-.92-.3-1.39-.24-1.24-1.34-1.95-2.55-1.66-1.42.34-2.83.69-4.26.93-.73.12-.95.41-.8,1.08-.08.12-.15.25-.23.37h0Z"/>
  <path class="st0" d="M93,103.54c-.92,2.49-1.71,5.02-2.98,7.37-.38.71-.67,1.49-1.42,1.98,1.02-2.68,2.51-5.16,3.09-7.99.86-3.12,1.78-6.22,2.06-9.46.02-.29-.05-.8.43-.71.47.08.36.58.32.92-.33,2.48-.68,4.97-1.43,7.37-.05.17-.05.36-.07.54h0Z"/>
  <path class="st0" d="M94.55,103.8c-1.07,2.69-2.14,5.39-3.71,7.85-.2.31-.25.78-.96.84,1.35-2.54,2.82-4.91,3.58-7.59,1.06-2.6,1.56-5.34,1.97-8.1.05-.37-.1-1.13.45-1.03.56.1.24.79.2,1.22-.25,2.33-.92,4.56-1.53,6.81h0Z"/>
  <path class="st0" d="M97.85,96.59c-.93,5.68-2.91,10.92-6.38,15.53,1.26-2.61,2.86-5.06,3.74-7.87.87-1.94,1.33-3.99,1.71-6.07.08-.46.14-.94.24-1.4.1-.47.36-.5.69-.2h0Z"/>
  <path class="st0" d="M100.23,97.69c-.72,2.81-1.61,5.56-2.86,8.19-.26.55-.59,1.08-.89,1.62-.08-.08-.16-.15-.23-.23,1.5-2.99,2.64-6.12,3.33-9.4.04-.21.16-.4.24-.6.14.14.27.28.41.42h0Z"/>
  <path class="st24" d="M93.87,77.21c-.56-.16-1.08-.26-1.68-.1.4-.54-.52-1.38.38-1.62,1.42-.39,1.24.75,1.3,1.72h0Z"/>
  <path class="st20" d="M77.53,113.8c-.52-3.15-.83-6.22-1.07-9.29-.31-3.92-.54-7.84-.79-11.77-.02-.34-.26-.96.32-.96.5,0,.39.61.41.99.22,6.69.76,13.37,1.4,20.04.03.31.22.68-.26,1h0Z"/>
  <path class="st23" d="M78.8,107.97c.06,1.64.13,3.28.16,4.92,0,.34.26.85-.37.97-.34-6.59-.69-13.18-1.01-19.77-.02-.49-.38-1.38.24-1.42.73-.05.55.87.57,1.42.15,4.63.28,9.26.41,13.88h0Z"/>
  <path class="st14" d="M80.08,93.75v19.91c-.11,0-.21,0-.31,0-.31-2.64,0-5.31-.28-7.94.13-3.75-.13-7.5-.24-11.25-.02-.57-.11-1.24.83-.73Z"/>
  <path class="st1" d="M66.49,99.54c-.07.38-.34.31-.57.19-.89-.47-1.78-.95-2.67-1.44-.25-.13-.42-.35-.29-.62.14-.27.39-.11.56-.01.89.47,1.78.96,2.66,1.44.16.09.28.22.29.44Z"/>
  <path class="st19" d="M108.13,69.43c-.06-.28-.16-.56-.18-.84-.03-.42-.17-.93.31-1.15.35-.16.6.17.76.45.28.49.26.98-.18,1.35-.17.14-.47.13-.71.19h0Z"/>
  <path class="st18" d="M63.38,99.29c.39-.04,2.31,1.23,2.4,1.47.12.3-.06.47-.29.36-.71-.35-1.4-.75-2.08-1.16-.1-.06-.09-.33-.09-.5,0-.09.08-.19.07-.17Z"/>
  <path class="st19" d="M77.74,59.07c.45-.22.87.02,1.28.08.34.05.6.39.46.74-.18.44-.59.39-.92.16-.35-.24-.73-.48-.83-.97h0Z"/>
  <path class="st0" d="M105.81,88.38c-1.04-1.2-2.09-2.39-3.12-3.59-.14-.16-.28-.36-.11-.58.12-.15.28-.08.37.04,1.04,1.31,2.29,2.48,3.14,3.93-.09.07-.19.14-.28.21h0Z"/>
  <path class="st0" d="M102.74,89.08c.61.4,1.26.76,1.62,1.71-.91-.42-1.64-.69-1.62-1.71Z"/>
  <path class="st0" d="M102.72,90.86c.19.13.29.32.3.54.01.16-.09.3-.26.24-.22-.08-.32-.29-.31-.52,0-.15.07-.28.26-.26h0Z"/>
  <path class="st0" d="M99.15,97.03c-.66,4.69-2.48,8.94-4.98,12.92-.42.68-.91,1.31-1.37,1.96-.47-.42-.04-.73.16-1.02,2.75-3.96,4.55-8.32,5.46-13.06.08-.41.02-.95.72-.81Z"/>
  <path class="st22" d="M91.49,96.49c.09,1.14-.32,2.35-.51,3.61-.37,2.45-1.09,4.81-1.79,7.17-.49,1.68-1.38,3.26-2.24,4.8-.55.99-3.26,1.42-4.25.87-.3-.17-.39-.42-.39-.72.01-.91-.12-1.85.09-2.71.82-3.31,1.05-6.66.75-10.03-.12-1.36.77-2.5.64-3.84-.01-.11.21-.33.35-.37,1.41-.38,2.59-1.57,4.22-1.14.25.07.49-.02.72-.16,1.41-.85,2.38-.29,2.41,1.39,0,.33,0,.66,0,1.14h0Z"/>
  <path class="st25" d="M83.18,89.18c-.14.48.27,1.45-.54,1.44-.68-.01-.54-.98-.55-1.57-.01-.47.02-.94.08-1.41.02-.22.16-.42.42-.44.26-.02.36.2.45.4.2.49.13,1,.15,1.58h0Z"/>
  <path class="st19" d="M66.36,67.92c-.57,1.7.26,2.87,1.49,3.94-.87-.45-1.76-.59-2.7-.42-.94.17-1.54.85-2.22,1.53,1.18-2.43.15-4.02-1.86-5.32,1.64.98,3.24,1.44,4.84.06.28-.21.43-.16.45.2h0Z"/>
  <path class="st19" d="M61.2,62.6c.1.56.04,1.16.38,1.72-.62-.36-1.4.9-1.79-.16-.4-1.07-.28-1.11,1.42-1.56h0Z"/>
  <path class="st19" d="M59.55,70.72c.09.56-.38.45-.64.52-.64.17-.47-.41-.55-.69-.15-.54.38-.44.63-.51.63-.17.4.43.56.68Z"/>
  <path class="st19" d="M66.36,67.92c-.15-.07-.3-.14-.45-.2.29-.52.59-1.05,1.16-1.59.09.88-.43,1.29-.72,1.79Z"/>
  <path class="st27" d="M108.57,117.07c1.11.67,2.08,1.25,3.04,1.83.45.27.49.53.08.95-1.87,1.92-1.87,1.93-2.68-.67-.19-.63-.46-1.24-.44-2.12h0Z"/>
  <circle class="st9" cx="79.84" cy="81.71" r="38.42"/>
  <g class="st8">
    <text class="st6" transform="translate(27.53 107.51) rotate(2.43)"><tspan x="0" y="0">Y</tspan></text>
  </g>
  <g class="st8">
    <text class="st7" transform="translate(36.92 119.7) rotate(4.79) scale(1.19 1)"><tspan x="0" y="0">M</tspan></text>
  </g>
  <g class="st8">
    <text class="st5" transform="translate(52.32 133.81) rotate(4.8) scale(1.12 1)"><tspan x="0" y="0">C</tspan></text>
  </g>
  <g class="st8">
    <text class="st4" transform="translate(95.99 132) scale(1.19 1)"><tspan x="0" y="0">L</tspan></text>
  </g>
  <g class="st8">
    <text class="st4" transform="translate(109.45 122.38) scale(1.19 1)"><tspan x="0" y="0">L</tspan></text>
  </g>
  <g class="st8">
    <text class="st2" transform="translate(119.35 107.89) scale(1.19 1)"><tspan x="0" y="0">C</tspan></text>
  </g>
  <path class="st17" d="M72.57,129.92c1.24-.37,2.4-.41,3.54-.48.89-.05,1.41-.42,1.73-1.22.35-.88.77-1.73,1.17-2.59.09-.19.12-.48.36-.5.33-.03.37.3.47.52.4.86.83,1.71,1.16,2.59.31.85.86,1.16,1.74,1.19.95.03,1.89.18,2.83.29.2.02.48-.03.55.24.08.25-.15.39-.3.53-.7.64-1.39,1.29-2.13,1.88-.67.54-.88,1.12-.68,2,.26,1.12.64,2.23.65,3.52-1.17-.45-2.15-1.08-3.12-1.69-.77-.48-1.45-.52-2.22-.01-.82.54-1.7.99-2.55,1.48-.18.1-.39.27-.59.08-.16-.15-.01-.34.02-.51.21-.96.39-1.93.64-2.88.21-.84,0-1.44-.68-2.01-.88-.73-1.8-1.44-2.59-2.44h0Z"/>
</svg>