<?xml version="1.0" encoding="UTF-8"?>
<svg id="Layer_1" xmlns="http://www.w3.org/2000/svg" version="1.1" viewBox="0 0 1920 1080">
  <!-- Generator: Adobe Illustrator 29.3.1, SVG Export Plug-In . SVG Version: 2.1.0 Build 151)  -->
  <defs>
    <style>
      .st0 {
        font-size: 22.49px;
      }

      .st0, .st1, .st2, .st3, .st4, .st5, .st6, .st7, .st8, .st9, .st10 {
        fill: #fff;
      }

      .st0, .st2, .st5, .st6, .st7, .st9 {
        font-family: Algerian, Algerian;
      }

      .st11 {
        fill: #010101;
      }

      .st12 {
        fill: #372220;
      }

      .st1, .st13, .st14, .st15, .st16 {
        stroke-miterlimit: 10;
      }

      .st1, .st14, .st15, .st16 {
        stroke: #fff;
        stroke-width: .5px;
      }

      .st17 {
        fill: #ee3d3b;
      }

      .st18 {
        fill: #351e1d;
      }

      .st19 {
        fill: #eae7eb;
      }

      .st20 {
        fill: #050202;
      }

      .st21 {
        fill: #f6921e;
      }

      .st2 {
        font-size: 60px;
      }

      .st22 {
        fill: #392020;
      }

      .st23 {
        fill: #040303;
      }

      .st24 {
        fill: #361c1c;
      }

      .st3 {
        font-size: 44.5px;
      }

      .st3, .st4, .st8, .st10 {
        font-family: Jokerman-Regular, Jokerman;
      }

      .st4 {
        font-size: 24.21px;
      }

      .st25 {
        fill: #282664;
      }

      .st5 {
        font-size: 66.83px;
      }

      .st6 {
        font-size: 26.98px;
      }

      .st7 {
        font-size: 72px;
      }

      .st13 {
        fill: none;
        stroke: #fff100;
        stroke-width: 2px;
      }

      .st26 {
        fill: #15152c;
      }

      .st27 {
        fill: #3f2424;
      }

      .st8 {
        font-size: 64.6px;
      }

      .st28 {
        fill: #190d0d;
      }

      .st9 {
        font-size: 25.04px;
      }

      .st29 {
        fill: #020101;
      }

      .st30 {
        fill: #2d2a29;
      }

      .st31 {
        fill: #352b2b;
      }

      .st14 {
        fill: #352928;
      }

      .st32 {
        fill: #130e13;
      }

      .st15 {
        fill: #302929;
      }

      .st33 {
        fill: #d0232e;
      }

      .st10 {
        font-size: 16.68px;
      }

      .st16 {
        fill: #3e2827;
      }
    </style>
  </defs>
  <g>
    <path class="st17" d="M599.14,319.51c-.12,71.19-24.64,133.65-73.4,185.73-53.94,57.59-121.06,87.27-199.81,87.31-149.94.09-274.32-120.1-273.81-274.46.49-151.42,122.58-272.83,273.57-272.44,153.79-.56,273.69,124.64,273.45,273.85Z"/>
    <text/>
    <path class="st25" d="M599.14,319.51c-.12,71.19-24.64,133.65-73.4,185.73-53.94,57.59-121.06,87.27-199.81,87.31-149.94.09-274.32-120.1-273.81-274.46.49-151.42,122.58-272.83,273.57-272.44,153.79-.56,273.69,124.64,273.45,273.85Z"/>
    <path class="st33" d="M567.11,318.4c-.29,133.79-109.25,242.05-242.04,242.84-138.48.82-245.15-110.25-246.24-242.22-1.13-135.99,110.24-248.7,249.66-246.1,128.17,2.39,239.68,108.35,238.63,245.47Z"/>
    <path class="st30" d="M552.53,317.01c1.27,126.49-103.89,227.71-225.04,229.55-131.15,1.99-234.57-104.37-234.25-230,.33-125.26,103.17-231.53,234.92-229.13,120.61,2.2,225.02,102.85,224.36,229.59Z"/>
    <path class="st1" d="M251.4,164.78c1.4,18.03-17.63,33.09-34.46,33.04-16.39-.05-30.08-14.37-30.84-30.86-.86-18.62,18.59-33.69,34.56-33.76,18.29-.08,31.62,16.99,30.74,31.58Z"/>
    <path class="st1" d="M389.59,131.66c-.35,6.54-2.91,13.54-10.23,17.87-2.71,1.6-3.38,3.23-2.3,6.23,1.59,4.42,2.65,9.04,4,13.55.77,2.6-.21,3.65-2.76,3.21-4.38-.75-8.73-1.61-13.09-2.46-1.98-.39-2.26-2.14-2.71-3.67-1.22-4.13-2.41-8.27-3.55-12.43-.67-2.44-2.17-3.47-4.72-3.4-2.83.08-3.09,2.06-3.52,4.08-.33,1.58-.76,3.13-1.14,4.7q-1.71,7.1-9.02,5.85c-9.27-1.58-9.29-1.67-7.44-10.77,3.09-15.17,6.18-30.34,9.12-45.54.65-3.35,1.98-4.54,5.48-3.79,9.6,2.05,19.44,3.07,28.73,6.48,8.07,2.97,13.02,10,13.16,20.07Z"/>
    <path class="st1" d="M282.96,150.37c.8,4.68,1.59,9.74,2.56,14.77.56,2.91-.56,4.31-3.38,4.74-3.07.47-6.12,1.04-9.17,1.6-2.49.46-3.81-.56-4.25-3.04-3.08-17.4-6.19-34.79-9.28-52.18-.49-2.75.36-4.31,3.48-4.54,2.95-.21,5.85-.98,8.78-1.46,2.72-.45,4.32.46,4.75,3.45.65,4.53,1.66,9.01,2.4,13.53.41,2.51,1.61,3.43,4.18,3.03,4.97-.79,7.14-2.54,8.17-7.56.9-4.35,1.57-8.76,2.2-13.16.3-2.11,1.04-3.59,3.31-3.94,3.73-.58,7.46-1.15,11.19-1.77,3.15-.52,4.24.69,3.54,3.82-1.88,8.42-3.37,16.94-5.66,25.24-.83,2.99-.26,4.86,1.42,6.93,4.93,6.07,9.83,12.16,14.76,18.23,2.64,3.24,2.42,4.08-1.63,4.89-3.96.8-7.98,1.31-11.95,2.04-2.35.43-3.84-.68-5.15-2.41-3.81-5.06-7.79-10-11.43-15.18-2.04-2.91-4.52-1.74-6.91-1.3-2.06.38-2.09,2.18-1.93,4.25Z"/>
    <path class="st1" d="M450.79,147.29c-1.92,9.23-3.85,18.46-5.74,27.7-1.8,8.84-3.55,17.69-5.32,26.54-1.16,5.84-1.88,6.12-7,2.76-1.13-.74-2.21-1.58-3.41-2.17-4.35-2.14-7.42-4.74-5.13-10.3.81-1.97-.46-3.57-2.26-4.68-4.13-2.54-8.24-5.11-12.31-7.74-2.47-1.6-4.44-.47-6.18,1.12-2.43,2.24-4.72,2.07-7.28.3-2.43-1.69-5-3.19-7.48-4.8-3.4-2.21-3.46-3.19-.26-5.53,8.59-6.29,17.2-12.56,25.8-18.83,6.2-4.51,12.5-8.89,18.56-13.58,2.9-2.25,5.37-2.54,8.31-.3,2.35,1.79,4.92,3.29,7.36,4.96,1.55,1.07,2.44,2.5,2.33,4.53Z"/>
    <path class="st1" d="M135.35,212.28c-.38-10.65,12.43-28.19,26.37-26.64.94.1,1.9.1,2.81.32,6.36,1.5,6.99,3.25,3.15,8.48-.88,1.19-1.72,2.43-2.46,3.71-1.49,2.56-3.26,3.67-6.56,3.12-4.31-.72-8.1,3.2-8.1,7.56,0,4.19,2.62,5.91,6.41,4.12,3.45-1.63,6.17-4.34,9.14-6.67,1.92-1.5,3.87-2.88,6.02-4.05,7.93-4.29,14.8-4.03,20.98,1.38,6.05,5.3,7.46,12.1,4.76,19.51-3.08,8.48-8.21,15.47-16.47,19.66-4.96,2.51-10.05,2.56-15.29.55-3.29-1.26-3.79-3.31-2.15-5.96,1.63-2.62,3.65-5,5.51-7.48,1.26-1.68,3.05-1.6,4.8-1.31,3.77.63,6.23-1.34,8.13-4.15,1.51-2.23,2.21-4.84.14-7.1-2.06-2.24-4.76-2.02-7.03-.47-3.33,2.28-6.42,4.91-9.59,7.43-3.89,3.09-8.13,5.03-13.26,5.32-8.76.5-18.2-7.72-17.33-17.33Z"/>
    <path class="st1" d="M460.9,236.59c-2.99.12-11.11-10.82-10.08-12.96.43-.89,1.43-1.57,2.27-2.2,9.53-7.06,19.02-14.15,28.65-21.07,2.55-1.83,3.01-3.51,1.08-5.96-2.25-2.86-4.35-5.84-6.63-8.67-1.39-1.72-1.37-3,.43-4.42,2.43-1.91,4.83-3.85,7.37-5.65,2.41-1.71,3.92-1.07,5.41.96,9.19,12.49,18.36,24.99,27.56,37.46,1.38,1.87,1.32,3.4-.62,4.82-2.5,1.83-4.94,3.74-7.44,5.56-2.02,1.46-3.62.45-4.87-1.16-2.15-2.77-4.19-5.62-6.23-8.47-1.75-2.45-3.36-2.72-5.97-.72-9.21,7.02-18.63,13.77-27.98,20.59-1.07.78-2.24,1.44-2.94,1.88Z"/>
    <path class="st21" d="M485.14,282.48c4.58-1.37,8.88-1.52,13.11-1.76,3.31-.19,5.2-1.54,6.4-4.52,1.3-3.25,2.86-6.4,4.33-9.58.33-.7.43-1.77,1.34-1.85,1.21-.11,1.38,1.12,1.75,1.92,1.49,3.18,3.08,6.32,4.29,9.6,1.16,3.14,3.2,4.3,6.43,4.39,3.5.1,6.98.65,10.46,1.06.73.09,1.76-.1,2.05.88.28.94-.55,1.45-1.12,1.97-2.6,2.35-5.16,4.77-7.89,6.96-2.49,2-3.26,4.15-2.52,7.4.95,4.14,2.35,8.25,2.4,13.03-4.34-1.66-7.95-3.99-11.55-6.24-2.85-1.77-5.36-1.93-8.23-.04-3.03,2-6.28,3.68-9.44,5.48-.67.38-1.43.99-2.19.28-.6-.57-.05-1.25.09-1.88.78-3.55,1.46-7.13,2.36-10.66.79-3.1.03-5.32-2.51-7.43-3.25-2.7-6.67-5.31-9.57-9.03Z"/>
    <path class="st21" d="M154.55,320.53c-4.36-2.47-8.03-4.39-11.53-6.59-2.86-1.8-5.37-1.79-8.24.03-3.58,2.27-7.37,4.19-12.08,6.82,1.04-4.88,1.72-8.68,2.69-12.41.97-3.74.63-6.76-2.86-9.2-2.52-1.76-4.69-4.04-6.96-6.14-.65-.6-1.8-1.11-1.4-2.21.39-1.08,1.62-.76,2.49-.86,3.47-.43,6.95-.9,10.44-1.1,2.9-.17,4.73-1.43,5.85-4.11,1.71-4.07,3.61-8.06,5.65-12.59,2.81,3.88,4.25,7.81,5.79,11.64,1.37,3.43,3.43,5.16,7.23,5.18,3.22.02,6.43.58,9.65.95.88.1,2.08-.12,2.34,1.09.19.88-.7,1.38-1.29,1.91-2.61,2.34-5.17,4.74-7.86,6.97-2.33,1.93-3.04,4.03-2.32,7.1.96,4.14,2.35,8.26,2.41,13.53Z"/>
    <path class="st15" d="M218.65,180.96c-8.27.04-15.29-7.37-15.24-16.07.05-7.8,7.55-14.98,15.56-14.9,8.46.08,15.23,7.17,15.3,16.03.07,8.41-6.72,14.9-15.63,14.94Z"/>
    <path class="st14" d="M362.91,137.91c-.56-.05-1.63-.1-2.7-.24-5.42-.72-6.13-1.72-5.09-7.11.08-.4.16-.79.23-1.19,1.51-8.45,1.94-8.73,10.13-6.48,5.06,1.38,7.16,4.38,6.37,9.11-.76,4.57-2.89,6.07-8.94,5.91Z"/>
    <path class="st16" d="M432.54,160.38c-1.04,4.41-2.06,8.86-3.16,13.29-.48,1.94-1.76,2.04-3.42,1.31-8.76-3.88-9.05-5.81-1.66-11.58,1.9-1.48,3.77-3.02,5.7-4.45.58-.43,1.32-1.26,2.08-.52.39.38.31,1.23.46,1.96Z"/>
    <text/>
    <path class="st19" d="M325.62,177.56c78.89.3,141.83,63.76,141.45,142.6-.37,77.7-64.24,140.71-142.4,140.48-77.85-.23-141.32-64.48-140.48-143.23.83-77.63,63.94-139.57,141.43-139.85Z"/>
    <path class="st11" d="M237.46,399.21c-5.47-11.82-9.87-23.97-11.16-37.06v.08c9.12,2.27,18.17,1.85,27.13-.92,2.31-.72,4.41-.43,6.61.69,5.4,2.76,10.93,5.27,16.37,7.95,2.59,1.27,3.3.49,3.01-2.22-.38-3.48-.41-7-.79-10.48-.27-2.44.18-4.29,2.8-5,5.2-1.42,6.4-4.97,6.27-10.03-.22-8.62.33-17.26.34-25.9,0-3.02.79-5.06,3.71-6.41,2.79-1.29,5.42-3,7.97-4.73,3.14-2.12,3.61-.6,3.52,2.24-.33,10.11-.63,20.23-.87,30.34-.03,1.38-.94,3.19,1.82,3.58,1.68.24.99,2.27.98,3.51-.13,18.36.62,36.68,2.58,54.95,1.23,11.41,3.17,22.69,5.56,33.91.92,4.33.08,4.43-4.26,4.36-9.03-.15-13.14-4.97-16.28-12.91-5.08-12.86-8.88-25.98-11.18-39.56-.48-2.85-1.9-4.12-4.28-5.17-4.44-1.96-8.78-4.12-13.16-6.21-.98-.47-2.31-1.03-1.73-2.28.68-1.48,1.91-.29,2.73.1,4.95,2.37,9.84,4.85,14.88,7.35.78-3.47-.4-5.27-3.36-6.58-6.37-2.83-12.59-6.01-19.49-9.35.84,9.83,2.7,18.7,5.24,27.45,3.92,13.56,10.06,26.11,17.25,38.19-.93,2.03-2.63,1.24-3.83.72-12.21-5.38-24.15-11.19-33.13-21.6-2.35-2.72-3-6.3-5.26-9Z"/>
    <path class="st20" d="M406.85,377.39c1.79-3.37.61-5.03-2.96-5.99-7.48-2.02-14.04-6.11-20.77-9.79-1.88-1.03-1.68-2.5-1.6-4.13.52-11.19.9-22.38.06-33.57-.02-.27-.02-.54-.04-.81q-.44-9.62,9.23-11.65c12.08-2.53,12.03-2.5,19.56,7.24,4.61,5.96,9.02,12.14,14.22,17.55,4.07,4.22,3.26,8.88,3.01,13.59-1.02,19.15-6.71,36.96-15.88,53.72-.26.47-.6.89-.9,1.34-1.12,1.96-2.17,3.97-3.39,5.87-.46.71-1.02,2.4-2.26.56-1.65-2.09-.21-3.89.69-5.6,4.67-8.83,8.99-17.82,11.99-27.38,2.76-8.8,4.23-17.83,4.83-27.02.15-2.26-.22-4.55,1.16-6.66.81-1.23.24-2.52-.71-3.68-5.2-6.33-10.27-12.78-16.23-19.43.47,4.86.19,9.1.77,13.38,1.02,7.54-.61,15.05-.96,22.58-.08,1.73-.3,3.5-.63,5.22-.48,2.47.35,4.32,2.7,5.21,3.71,1.41,4.27,4.1,3.37,7.53-3.43,13.08-7.62,25.88-14.24,37.75-1.99,3.57-4.49,6.73-8.23,8.66-.64.15-1.23.19-1.47-.61-1.11-1.81.35-3.05,1.09-4.35,6.27-10.96,11.9-22.19,15.09-34.5.47-1.83,1.35-3.5,2.49-5.02Z"/>
    <path class="st32" d="M366.97,401.46c-3.37,10.61-6.58,21.28-11.58,31.3-1.06,2.13-2.37,3.33-4.72,3.76-5.3.96-10.6,1.66-16,1.76-2.78.05-3.5-.97-3.12-3.56.61-4.25,1-8.54,1.49-12.81,2.17-18.01,2.75-36.09,2.62-54.2.08-.4.3-.69.65-.88,4.92-1.41,9.84-2.87,14.78-4.21,2.14-.58,3.31-1.68,3.04-3.99-.05-.4-.08-.83.02-1.21,2.98-11.51-4.34-17.46-13.21-23.59,0,6.78.01,13.03,0,19.27-.02,6.34.06,6.13-5.69,3.55-3.33-1.49-4.41-3.44-4.4-7.09.06-17.68-.21-35.36-.38-53.04-.01-1.31.47-2.94-.74-3.83-3.16-2.32-2.93-5.54-2.58-8.76.71-6.71-4.39-10.51-7.39-15.43-.63,2.62-1.79,5.13.33,7.56.43.49.32,1.53.31,2.31-.29,21.59-.57,43.19-.94,64.78-.03,1.54.91,4.26-1.46,4.31-2.37.05-4.41-1.55-4.39-4.66.07-9.18-.16-18.36.08-27.54.09-3.35-.83-5.82-3.59-7.48-2.73-1.65-3.21-3.96-2.88-6.89.46-4.16.68-8.34.91-12.52.14-2.6.57-4.7,2.69-6.8,2.51-2.48,1.09-6.42,1.68-9.68.28-1.54-.06-3.1,1.46-4.39,5.13-4.36,5.31-4.24,9.33,1.31,3.43,4.73,5.77,9.62,5.21,15.62-.16,1.75.2,3.51,1.69,4.79,2.58,2.22,2.99,5.09,2.98,8.36-.02,10.39.35,20.78.33,31.18,0,3.59,1.39,3.63,3.67,1.95,2.78-2.04,4.59-1.05,6.92,1.05,4.1,3.69,7.68,7.98,12.4,10.97,1.33,4.79.17,9.63.1,14.43-.04,2.84.61,3.65,3.32,2.6,3.38-1.31,6.84-2.42,10.21-3.76,2.69-1.07,3.47-.51,3.28,2.52-.61,9.53-1.98,18.97-3.1,28.44-.88,2.65.1,5.73-1.9,8.12-.64,2.09-1.49,4.13-1.4,6.37Z"/>
    <path class="st23" d="M318.39,255.62c-1.27.4-2.28,0-3.35-.79-4.97-3.62-9.59-7.74-15.03-10.7-.79-.43-1.89-.9-1.56-2.05.33-1.14,1.53-1.05,2.41-.91,2.12.33,4.27.66,6.31,1.32,2.48.8,2.83-.11,2.37-2.27-.26-1.21-1.5-2.67.05-3.66,1.51-.96,3.13-.32,4.55.61.23.15.49.26.67.45,4.64,5.09,9.54,4.25,14.69.28-1.51-2.26-4.03-3.39-6.57-4.37-6.54-2.54-13.13-4.92-19.67-7.46-1.24-.48-3.58-.32-3.19-2.3.4-2.04,2.59-2.2,4.37-1.94,5.46.8,10.91,1.73,16.36,2.64,9.56,1.59,19.14,3.12,28.67,4.89,2.03.38,3.67.06,5.42-.74,4.53-2.08,9.11-4.04,13.62-6.16,4.12-1.94,8.24-1.03,12.21.15,2.84.84,2.17,3.06.71,4.79-2.3,2.73-5.46,4.4-8.56,6-3.23,1.66-6.53,3.32-9.98,4.34-3.35,1-4.68,2.92-5.26,6.2-.85,4.77-2.21,9.45-3.28,14.18-.43,1.9-1.28,3.21-3.4,3.39-2.73.24-1.95-2.12-2.42-3.39-.6-1.62-.77-3.41-1.1-5.13-.87-4.58-4.96-7.2-9.44-6.15-5.24,1.24-10.48,2.57-15.78,3.43-2.71.44-3.5,1.5-2.95,3.98-.29.46-.57.92-.86,1.38Z"/>
    <path class="st11" d="M374.28,399.86c-3.4,9.2-6.33,18.59-11.02,27.26-1.41,2.62-2.47,5.52-5.24,7.31,3.77-9.9,9.3-19.08,11.42-29.57,3.18-11.53,6.57-23.01,7.63-35.01.09-1.06-.18-2.95,1.6-2.64,1.75.3,1.34,2.14,1.17,3.4-1.22,9.19-2.51,18.38-5.3,27.27-.2.63-.18,1.32-.26,1.99Z"/>
    <path class="st11" d="M380.03,400.81c-3.96,9.97-7.93,19.94-13.72,29.04-.73,1.14-.92,2.87-3.54,3.11,4.98-9.41,10.43-18.15,13.23-28.07,3.94-9.63,5.78-19.75,7.28-29.97.2-1.36-.38-4.17,1.67-3.82,2.06.36.9,2.94.74,4.53-.91,8.61-3.42,16.86-5.66,25.18Z"/>
    <path class="st11" d="M392.24,374.13c-3.45,21.01-10.75,40.41-23.61,57.47,4.65-9.66,10.6-18.72,13.85-29.11,3.21-7.18,4.91-14.78,6.31-22.46.31-1.72.52-3.46.88-5.17.37-1.74,1.32-1.85,2.57-.73Z"/>
    <path class="st11" d="M401.04,378.22c-2.67,10.4-5.95,20.59-10.58,30.29-.98,2.05-2.18,4-3.28,6-.29-.28-.58-.57-.86-.85,5.56-11.08,9.76-22.63,12.33-34.77.16-.77.59-1.48.89-2.22.5.52,1,1.03,1.51,1.55Z"/>
    <path class="st28" d="M377.52,302.42c-2.08-.6-4.01-.98-6.2-.36,1.49-1.98-1.93-5.1,1.4-6.01,5.25-1.44,4.59,2.78,4.8,6.38Z"/>
    <path class="st24" d="M317.04,437.83c-1.93-11.64-3.08-23.01-3.97-34.39-1.14-14.5-2.01-29.02-2.91-43.54-.08-1.27-.97-3.54,1.17-3.55,1.86,0,1.45,2.24,1.5,3.65.83,24.77,2.8,49.47,5.17,74.14.11,1.16.81,2.52-.96,3.69Z"/>
    <path class="st27" d="M321.75,416.24c.22,6.06.49,12.12.61,18.19.03,1.27.97,3.14-1.38,3.59-1.26-24.39-2.56-48.77-3.73-73.16-.09-1.81-1.39-5.1.88-5.24,2.71-.17,2.04,3.22,2.1,5.25.54,17.12,1.02,34.25,1.51,51.37Z"/>
    <path class="st18" d="M326.47,363.63v73.68c-.39,0-.77.01-1.16.02-1.16-9.75.03-19.63-1.04-29.39.47-13.89-.49-27.75-.87-41.62-.06-2.12-.4-4.58,3.07-2.69Z"/>
    <path class="st12" d="M276.19,385.07c-.27,1.42-1.27,1.13-2.11.69-3.31-1.73-6.59-3.53-9.87-5.32-.91-.49-1.56-1.29-1.06-2.28.5-1,1.44-.39,2.09-.05,3.31,1.74,6.58,3.54,9.86,5.34.61.33,1.03.83,1.09,1.62Z"/>
    <path class="st23" d="M430.26,273.67c-.23-1.04-.59-2.06-.67-3.11-.11-1.54-.64-3.43,1.16-4.26,1.3-.6,2.22.64,2.81,1.67,1.05,1.8.98,3.64-.68,5.01-.63.52-1.73.48-2.62.7,0,0,0,0,0,0Z"/>
    <path class="st22" d="M264.7,384.12c1.45-.15,8.53,4.56,8.88,5.44.44,1.12-.24,1.74-1.09,1.33-2.64-1.28-5.19-2.76-7.69-4.3-.37-.23-.34-1.21-.35-1.85,0-.35.29-.71.25-.62Z"/>
    <path class="st23" d="M317.83,235.32c1.68-.8,3.23.09,4.75.29,1.25.17,2.23,1.44,1.72,2.72-.65,1.63-2.19,1.43-3.4.59-1.28-.89-2.69-1.78-3.07-3.6Z"/>
    <path class="st11" d="M421.68,343.78c-3.86-4.43-7.72-8.85-11.56-13.29-.51-.59-1.05-1.35-.4-2.15.43-.54,1.02-.3,1.37.14,3.86,4.86,8.47,9.16,11.63,14.54-.35.25-.69.51-1.04.76Z"/>
    <path class="st11" d="M410.33,346.34c2.26,1.48,4.67,2.83,6,6.31-3.36-1.55-6.05-2.57-6-6.31Z"/>
    <path class="st11" d="M410.25,352.94c.72.47,1.07,1.19,1.12,2.01.04.59-.35,1.12-.95.9-.81-.3-1.17-1.06-1.13-1.93.03-.57.26-1.02.96-.97Z"/>
    <path class="st11" d="M397.03,375.79c-2.44,17.36-9.16,33.08-18.41,47.81-1.57,2.5-3.37,4.85-5.06,7.27-1.75-1.57-.14-2.7.61-3.78,10.19-14.66,16.83-30.8,20.19-48.31.29-1.53.09-3.5,2.67-2.99Z"/>
    <path class="st26" d="M368.7,373.78c.32,4.2-1.17,8.71-1.87,13.35-1.37,9.08-4.05,17.81-6.62,26.52-1.83,6.21-5.1,12.07-8.3,17.77-2.05,3.65-12.07,5.27-15.73,3.22-1.1-.62-1.46-1.55-1.44-2.68.05-3.36-.46-6.86.33-10.04,3.05-12.24,3.89-24.63,2.77-37.11-.45-5.04,2.86-9.25,2.36-14.2-.04-.42.76-1.23,1.3-1.38,5.2-1.42,9.6-5.81,15.63-4.2.92.25,1.83-.09,2.68-.61,5.22-3.15,8.81-1.08,8.9,5.13.02,1.21,0,2.43,0,4.22Z"/>
    <path class="st29" d="M337.94,346.71c-.5,1.76.99,5.37-2,5.33-2.5-.04-1.98-3.61-2.04-5.81-.05-1.73.08-3.48.29-5.21.09-.8.61-1.56,1.54-1.63.98-.07,1.35.75,1.66,1.49.74,1.8.47,3.71.55,5.83Z"/>
    <path class="st23" d="M275.71,268.08c-2.1,6.29.96,10.61,5.52,14.59-3.23-1.67-6.52-2.19-9.99-1.56-3.49.64-5.68,3.16-8.2,5.67,4.37-8.98.55-14.89-6.9-19.68,6.07,3.61,11.97,5.34,17.91.23,1.03-.79,1.6-.58,1.66.75Z"/>
    <path class="st23" d="M256.63,248.38c.37,2.08.14,4.3,1.41,6.38-2.28-1.32-5.19,3.32-6.64-.59-1.48-3.96-1.04-4.12,5.24-5.79Z"/>
    <path class="st23" d="M250.52,278.42c.33,2.09-1.4,1.65-2.38,1.91-2.38.64-1.75-1.53-2.03-2.54-.55-2,1.39-1.61,2.33-1.87,2.34-.64,1.47,1.6,2.08,2.5Z"/>
    <path class="st23" d="M275.71,268.08c-.55-.25-1.11-.5-1.66-.75,1.09-1.94,2.18-3.87,4.31-5.89.35,3.27-1.59,4.77-2.65,6.64Z"/>
    <text/>
    <path class="st31" d="M431.89,449.94c4.1,2.47,7.68,4.61,11.24,6.78,1.66,1.01,1.8,1.97.29,3.51-6.93,7.09-6.92,7.13-9.9-2.47-.72-2.32-1.71-4.57-1.63-7.83Z"/>
    <circle class="st13" cx="325.61" cy="319.08" r="142.17"/>
    <text class="st8" transform="translate(132.04 414.55) rotate(2.43)"><tspan x="0" y="0">Y</tspan></text>
    <text class="st3" transform="translate(166.79 459.64) rotate(4.79) scale(1.19 1)"><tspan x="0" y="0">M</tspan></text>
    <text class="st5" transform="translate(223.78 511.88) rotate(4.8) scale(1.12 1)"><tspan x="0" y="0">C</tspan></text>
    <text class="st2" transform="translate(385.34 505.14) scale(1.19 1)"><tspan x="0" y="0">L</tspan></text>
    <text class="st2" transform="translate(435.15 469.58) scale(1.19 1)"><tspan x="0" y="0">L</tspan></text>
    <text class="st7" transform="translate(471.79 415.96) scale(1.19 1)"><tspan x="0" y="0">C</tspan></text>
    <path class="st21" d="M298.71,497.48c4.58-1.37,8.88-1.52,13.11-1.76,3.31-.19,5.2-1.54,6.4-4.52,1.3-3.25,2.86-6.4,4.33-9.58.33-.7.43-1.77,1.34-1.85,1.21-.11,1.38,1.12,1.75,1.92,1.49,3.18,3.08,6.32,4.29,9.6,1.16,3.14,3.2,4.3,6.43,4.39,3.5.1,6.98.65,10.46,1.06.73.09,1.76-.1,2.05.88.28.94-.55,1.45-1.12,1.97-2.6,2.35-5.16,4.77-7.89,6.96-2.49,2-3.26,4.15-2.52,7.4.95,4.14,2.35,8.25,2.4,13.03-4.34-1.66-7.95-3.99-11.55-6.24-2.85-1.77-5.36-1.93-8.23-.04-3.03,2-6.28,3.68-9.44,5.48-.67.38-1.43.99-2.19.28-.6-.57-.05-1.25.09-1.88.78-3.55,1.46-7.13,2.36-10.66.79-3.1.03-5.32-2.51-7.43-3.25-2.7-6.67-5.31-9.57-9.03Z"/>
  </g>
  <g>
    <path class="st17" d="M1879.39,949.79c-.04,26.68-9.23,50.09-27.51,69.6-20.21,21.58-45.37,32.7-74.88,32.72-56.19.03-102.8-45.01-102.61-102.85.18-56.75,45.94-102.25,102.52-102.1,57.63-.21,102.57,46.71,102.48,102.63Z"/>
    <text/>
    <path class="st25" d="M1879.39,949.79c-.04,26.68-9.23,50.09-27.51,69.6-20.21,21.58-45.37,32.7-74.88,32.72-56.19.03-102.8-45.01-102.61-102.85.18-56.75,45.94-102.25,102.52-102.1,57.63-.21,102.57,46.71,102.48,102.63Z"/>
    <path class="st33" d="M1867.39,949.38c-.11,50.14-40.94,90.71-90.71,91.01-51.9.31-91.87-41.32-92.28-90.77-.42-50.96,41.31-93.2,93.56-92.23,48.03.9,89.82,40.61,89.43,91.99Z"/>
    <path class="st30" d="M1861.93,948.86c.48,47.4-38.93,85.34-84.33,86.02-49.15.74-87.91-39.11-87.79-86.19.12-46.94,38.67-86.77,88.04-85.87,45.2.82,84.33,38.54,84.08,86.04Z"/>
    <path class="st1" d="M1749.08,891.81c.52,6.76-6.61,12.4-12.91,12.38-6.14-.02-11.27-5.38-11.56-11.56-.32-6.98,6.97-12.63,12.95-12.65,6.85-.03,11.85,6.37,11.52,11.84Z"/>
    <path class="st1" d="M1800.86,879.4c-.13,2.45-1.09,5.07-3.84,6.7-1.01.6-1.27,1.21-.86,2.34.6,1.66.99,3.39,1.5,5.08.29.97-.08,1.37-1.04,1.2-1.64-.28-3.27-.6-4.91-.92-.74-.14-.85-.8-1.01-1.37-.46-1.55-.9-3.1-1.33-4.66-.25-.92-.81-1.3-1.77-1.27-1.06.03-1.16.77-1.32,1.53-.12.59-.29,1.17-.43,1.76q-.64,2.66-3.38,2.19c-3.47-.59-3.48-.63-2.79-4.04,1.16-5.69,2.32-11.37,3.42-17.07.24-1.26.74-1.7,2.06-1.42,3.6.77,7.28,1.15,10.77,2.43,3.02,1.11,4.88,3.75,4.93,7.52Z"/>
    <path class="st1" d="M1760.9,886.41c.3,1.75.6,3.65.96,5.54.21,1.09-.21,1.62-1.27,1.78-1.15.18-2.29.39-3.43.6-.93.17-1.43-.21-1.59-1.14-1.15-6.52-2.32-13.04-3.48-19.55-.18-1.03.13-1.61,1.3-1.7,1.1-.08,2.19-.37,3.29-.55,1.02-.17,1.62.17,1.78,1.29.24,1.7.62,3.38.9,5.07.15.94.6,1.29,1.57,1.13,1.86-.29,2.67-.95,3.06-2.83.34-1.63.59-3.28.82-4.93.11-.79.39-1.35,1.24-1.48,1.4-.22,2.8-.43,4.19-.66,1.18-.2,1.59.26,1.33,1.43-.7,3.16-1.26,6.35-2.12,9.46-.31,1.12-.1,1.82.53,2.6,1.85,2.28,3.68,4.56,5.53,6.83.99,1.22.91,1.53-.61,1.83-1.48.3-2.99.49-4.48.77-.88.16-1.44-.25-1.93-.9-1.43-1.9-2.92-3.75-4.29-5.69-.77-1.09-1.7-.65-2.59-.49-.77.14-.78.82-.72,1.59Z"/>
    <path class="st1" d="M1823.8,885.25c-.72,3.46-1.44,6.92-2.15,10.38-.68,3.31-1.33,6.63-1.99,9.95-.44,2.19-.7,2.29-2.62,1.04-.42-.28-.83-.59-1.28-.81-1.63-.8-2.78-1.77-1.92-3.86.3-.74-.17-1.34-.85-1.75-1.55-.95-3.09-1.91-4.61-2.9-.93-.6-1.67-.18-2.32.42-.91.84-1.77.77-2.73.11-.91-.63-1.87-1.19-2.8-1.8-1.27-.83-1.3-1.19-.1-2.07,3.22-2.36,6.44-4.71,9.67-7.06,2.32-1.69,4.69-3.33,6.96-5.09,1.09-.84,2.01-.95,3.11-.11.88.67,1.84,1.23,2.76,1.86.58.4.92.94.87,1.7Z"/>
    <path class="st1" d="M1705.59,909.61c-.14-3.99,4.66-10.56,9.88-9.99.35.04.71.04,1.05.12,2.38.56,2.62,1.22,1.18,3.18-.33.45-.64.91-.92,1.39-.56.96-1.22,1.38-2.46,1.17-1.62-.27-3.04,1.2-3.04,2.83,0,1.57.98,2.22,2.4,1.54,1.29-.61,2.31-1.63,3.42-2.5.72-.56,1.45-1.08,2.26-1.52,2.97-1.61,5.55-1.51,7.86.52,2.27,1.99,2.79,4.53,1.79,7.31-1.15,3.18-3.08,5.8-6.17,7.37-1.86.94-3.76.96-5.73.21-1.23-.47-1.42-1.24-.81-2.23.61-.98,1.37-1.87,2.06-2.8.47-.63,1.14-.6,1.8-.49,1.41.24,2.34-.5,3.05-1.55.57-.84.83-1.81.05-2.66-.77-.84-1.78-.76-2.63-.17-1.25.85-2.41,1.84-3.59,2.78-1.46,1.16-3.05,1.88-4.97,1.99-3.28.19-6.82-2.89-6.49-6.49Z"/>
    <path class="st1" d="M1827.59,918.72c-1.12.04-4.16-4.06-3.78-4.86.16-.33.53-.59.85-.82,3.57-2.64,7.13-5.3,10.74-7.9.96-.69,1.13-1.31.41-2.23-.84-1.07-1.63-2.19-2.49-3.25-.52-.64-.51-1.13.16-1.66.91-.72,1.81-1.44,2.76-2.12.9-.64,1.47-.4,2.03.36,3.44,4.68,6.88,9.36,10.33,14.04.52.7.49,1.28-.23,1.81-.94.68-1.85,1.4-2.79,2.08-.76.55-1.36.17-1.83-.44-.8-1.04-1.57-2.11-2.34-3.17-.66-.92-1.26-1.02-2.24-.27-3.45,2.63-6.98,5.16-10.49,7.72-.4.29-.84.54-1.1.71Z"/>
    <path class="st21" d="M1836.67,935.92c1.72-.51,3.33-.57,4.91-.66,1.24-.07,1.95-.58,2.4-1.69.49-1.22,1.07-2.4,1.62-3.59.12-.26.16-.66.5-.69.45-.04.52.42.66.72.56,1.19,1.16,2.37,1.61,3.6.43,1.18,1.2,1.61,2.41,1.65,1.31.04,2.62.24,3.92.4.27.03.66-.04.77.33.11.35-.21.54-.42.74-.98.88-1.93,1.79-2.96,2.61-.93.75-1.22,1.55-.94,2.77.35,1.55.88,3.09.9,4.88-1.63-.62-2.98-1.5-4.33-2.34-1.07-.67-2.01-.72-3.08-.01-1.14.75-2.35,1.38-3.54,2.05-.25.14-.54.37-.82.1-.23-.21-.02-.47.03-.71.29-1.33.55-2.67.88-3.99.29-1.16.01-1.99-.94-2.78-1.22-1.01-2.5-1.99-3.58-3.38Z"/>
    <path class="st21" d="M1712.78,950.18c-1.63-.93-3.01-1.65-4.32-2.47-1.07-.67-2.01-.67-3.09.01-1.34.85-2.76,1.57-4.53,2.55.39-1.83.65-3.25,1.01-4.65.36-1.4.23-2.54-1.07-3.45-.95-.66-1.76-1.51-2.61-2.3-.24-.22-.67-.42-.53-.83.15-.41.61-.28.93-.32,1.3-.16,2.61-.34,3.91-.41,1.09-.06,1.77-.54,2.19-1.54.64-1.52,1.35-3.02,2.12-4.72,1.05,1.45,1.59,2.93,2.17,4.36.51,1.29,1.29,1.93,2.71,1.94,1.21,0,2.41.22,3.61.36.33.04.78-.04.88.41.07.33-.26.52-.48.72-.98.88-1.94,1.77-2.95,2.61-.87.72-1.14,1.51-.87,2.66.36,1.55.88,3.09.9,5.07Z"/>
    <path class="st15" d="M1736.8,897.87c-3.1.01-5.73-2.76-5.71-6.02.02-2.92,2.83-5.61,5.83-5.59,3.17.03,5.71,2.69,5.73,6.01.03,3.15-2.52,5.59-5.86,5.6Z"/>
    <path class="st14" d="M1790.87,881.74c-.21-.02-.61-.04-1.01-.09-2.03-.27-2.3-.65-1.91-2.66.03-.15.06-.3.09-.45.57-3.17.73-3.27,3.8-2.43,1.9.52,2.68,1.64,2.39,3.41-.28,1.71-1.08,2.28-3.35,2.22Z"/>
    <path class="st16" d="M1816.96,890.16c-.39,1.65-.77,3.32-1.19,4.98-.18.73-.66.77-1.28.49-3.28-1.46-3.39-2.18-.62-4.34.71-.56,1.41-1.13,2.14-1.67.22-.16.49-.47.78-.19.15.14.12.46.17.73Z"/>
    <text/>
    <path class="st19" d="M1776.89,896.6c29.56.11,53.15,23.89,53.01,53.44-.14,29.12-24.08,52.73-53.37,52.64-29.18-.09-52.96-24.16-52.65-53.67.31-29.09,23.96-52.3,53-52.41Z"/>
    <path class="st11" d="M1743.85,979.66c-2.05-4.43-3.7-8.98-4.18-13.89v.03c3.42.85,6.81.69,10.17-.35.87-.27,1.65-.16,2.48.26,2.02,1.03,4.1,1.97,6.13,2.98.97.48,1.24.18,1.13-.83-.14-1.3-.15-2.62-.3-3.93-.1-.91.07-1.61,1.05-1.87,1.95-.53,2.4-1.86,2.35-3.76-.08-3.23.12-6.47.13-9.7,0-1.13.3-1.9,1.39-2.4,1.05-.48,2.03-1.13,2.99-1.77,1.18-.8,1.35-.23,1.32.84-.12,3.79-.24,7.58-.33,11.37-.01.52-.35,1.2.68,1.34.63.09.37.85.37,1.31-.05,6.88.23,13.75.97,20.59.46,4.28,1.19,8.5,2.08,12.71.35,1.62.03,1.66-1.6,1.63-3.39-.05-4.92-1.86-6.1-4.84-1.9-4.82-3.33-9.74-4.19-14.82-.18-1.07-.71-1.55-1.61-1.94-1.66-.73-3.29-1.55-4.93-2.33-.37-.18-.87-.38-.65-.86.25-.55.72-.11,1.02.04,1.85.89,3.69,1.82,5.58,2.76.29-1.3-.15-1.97-1.26-2.47-2.39-1.06-4.72-2.25-7.3-3.5.31,3.68,1.01,7.01,1.96,10.29,1.47,5.08,3.77,9.79,6.46,14.31-.35.76-.99.47-1.43.27-4.58-2.02-9.05-4.19-12.42-8.09-.88-1.02-1.13-2.36-1.97-3.37Z"/>
    <path class="st20" d="M1807.33,971.48c.67-1.26.23-1.88-1.11-2.25-2.8-.76-5.26-2.29-7.78-3.67-.71-.39-.63-.94-.6-1.55.2-4.19.34-8.39.02-12.58,0-.1,0-.2-.01-.3q-.16-3.61,3.46-4.37c4.53-.95,4.51-.94,7.33,2.71,1.73,2.23,3.38,4.55,5.33,6.58,1.52,1.58,1.22,3.33,1.13,5.09-.38,7.18-2.52,13.85-5.95,20.13-.1.18-.22.34-.34.5-.42.74-.81,1.49-1.27,2.2-.17.27-.38.9-.85.21-.62-.78-.08-1.46.26-2.1,1.75-3.31,3.37-6.68,4.49-10.26,1.03-3.3,1.58-6.68,1.81-10.13.06-.85-.08-1.7.44-2.5.3-.46.09-.94-.27-1.38-1.95-2.37-3.85-4.79-6.08-7.28.18,1.82.07,3.41.29,5.01.38,2.83-.23,5.64-.36,8.46-.03.65-.11,1.31-.24,1.96-.18.93.13,1.62,1.01,1.95,1.39.53,1.6,1.54,1.26,2.82-1.29,4.9-2.86,9.7-5.34,14.15-.75,1.34-1.68,2.52-3.08,3.25-.24.06-.46.07-.55-.23-.42-.68.13-1.14.41-1.63,2.35-4.11,4.46-8.32,5.65-12.93.18-.69.51-1.31.93-1.88Z"/>
    <path class="st32" d="M1792.39,980.5c-1.26,3.98-2.47,7.97-4.34,11.73-.4.8-.89,1.25-1.77,1.41-1.99.36-3.97.62-6,.66-1.04.02-1.31-.36-1.17-1.34.23-1.59.38-3.2.56-4.8.81-6.75,1.03-13.52.98-20.31.03-.15.11-.26.24-.33,1.85-.53,3.69-1.08,5.54-1.58.8-.22,1.24-.63,1.14-1.5-.02-.15-.03-.31,0-.45,1.12-4.31-1.63-6.54-4.95-8.84,0,2.54,0,4.88,0,7.22,0,2.38.02,2.3-2.13,1.33-1.25-.56-1.65-1.29-1.65-2.66.02-6.63-.08-13.25-.14-19.88,0-.49.18-1.1-.28-1.44-1.18-.87-1.1-2.08-.97-3.28.27-2.52-1.65-3.94-2.77-5.78-.24.98-.67,1.92.12,2.83.16.18.12.57.12.87-.11,8.09-.21,16.18-.35,24.28,0,.58.34,1.6-.55,1.62-.89.02-1.65-.58-1.64-1.75.02-3.44-.06-6.88.03-10.32.03-1.26-.31-2.18-1.35-2.8-1.02-.62-1.2-1.48-1.08-2.58.17-1.56.26-3.13.34-4.69.05-.97.21-1.76,1.01-2.55.94-.93.41-2.41.63-3.63.11-.58-.02-1.16.55-1.64,1.92-1.64,1.99-1.59,3.5.49,1.28,1.77,2.16,3.6,1.95,5.86-.06.66.08,1.32.63,1.79.97.83,1.12,1.91,1.12,3.13,0,3.89.13,7.79.12,11.68,0,1.35.52,1.36,1.38.73,1.04-.76,1.72-.39,2.59.39,1.54,1.38,2.88,2.99,4.65,4.11.5,1.8.06,3.61.04,5.41-.02,1.06.23,1.37,1.24.97,1.27-.49,2.56-.91,3.83-1.41,1.01-.4,1.3-.19,1.23.94-.23,3.57-.74,7.11-1.16,10.66-.33.99.04,2.15-.71,3.04-.24.78-.56,1.55-.52,2.39Z"/>
    <path class="st23" d="M1774.18,925.85c-.48.15-.85,0-1.26-.29-1.86-1.36-3.59-2.9-5.63-4.01-.3-.16-.71-.34-.58-.77.12-.43.57-.39.9-.34.8.12,1.6.25,2.36.49.93.3,1.06-.04.89-.85-.1-.45-.56-1,.02-1.37.56-.36,1.17-.12,1.71.23.08.06.18.1.25.17,1.74,1.91,3.57,1.59,5.5.1-.57-.85-1.51-1.27-2.46-1.64-2.45-.95-4.92-1.84-7.37-2.79-.47-.18-1.34-.12-1.2-.86.15-.76.97-.83,1.64-.73,2.05.3,4.09.65,6.13.99,3.58.6,7.17,1.17,10.74,1.83.76.14,1.38.02,2.03-.28,1.7-.78,3.41-1.52,5.1-2.31,1.54-.73,3.09-.39,4.58.05,1.07.32.81,1.15.27,1.8-.86,1.02-2.04,1.65-3.21,2.25-1.21.62-2.45,1.24-3.74,1.63-1.26.37-1.75,1.09-1.97,2.32-.32,1.79-.83,3.54-1.23,5.32-.16.71-.48,1.2-1.28,1.27-1.02.09-.73-.79-.91-1.27-.22-.61-.29-1.28-.41-1.92-.32-1.72-1.86-2.7-3.54-2.3-1.96.46-3.93.96-5.91,1.29-1.01.16-1.31.56-1.1,1.49-.11.17-.21.35-.32.52Z"/>
    <path class="st11" d="M1795.13,979.91c-1.27,3.45-2.37,6.97-4.13,10.21-.53.98-.92,2.07-1.96,2.74,1.41-3.71,3.49-7.15,4.28-11.08,1.19-4.32,2.46-8.62,2.86-13.12.04-.4-.07-1.1.6-.99.65.11.5.8.44,1.27-.46,3.44-.94,6.89-1.99,10.22-.07.24-.07.5-.1.75Z"/>
    <path class="st11" d="M1797.28,980.26c-1.48,3.74-2.97,7.47-5.14,10.88-.27.43-.34,1.08-1.33,1.16,1.87-3.53,3.91-6.8,4.96-10.52,1.48-3.61,2.17-7.4,2.73-11.23.07-.51-.14-1.56.63-1.43.77.13.34,1.1.28,1.7-.34,3.23-1.28,6.32-2.12,9.44Z"/>
    <path class="st11" d="M1801.86,970.26c-1.29,7.87-4.03,15.14-8.85,21.54,1.74-3.62,3.97-7.02,5.19-10.91,1.2-2.69,1.84-5.54,2.37-8.42.12-.64.2-1.3.33-1.94.14-.65.5-.69.96-.27Z"/>
    <path class="st11" d="M1805.15,971.79c-1,3.9-2.23,7.71-3.96,11.35-.37.77-.82,1.5-1.23,2.25-.11-.11-.22-.21-.32-.32,2.08-4.15,3.66-8.48,4.62-13.03.06-.29.22-.55.33-.83.19.19.38.39.56.58Z"/>
    <path class="st28" d="M1796.34,943.39c-.78-.22-1.5-.37-2.32-.14.56-.74-.72-1.91.52-2.25,1.97-.54,1.72,1.04,1.8,2.39Z"/>
    <path class="st24" d="M1773.67,994.13c-.72-4.36-1.15-8.62-1.49-12.89-.43-5.43-.75-10.88-1.09-16.32-.03-.47-.36-1.33.44-1.33.7,0,.54.84.56,1.37.31,9.28,1.05,18.54,1.94,27.78.04.44.31.95-.36,1.38Z"/>
    <path class="st27" d="M1775.44,986.04c.08,2.27.18,4.54.23,6.82,0,.48.36,1.17-.52,1.34-.47-9.14-.96-18.28-1.4-27.42-.03-.68-.52-1.91.33-1.96,1.02-.06.76,1.21.79,1.97.2,6.42.38,12.84.57,19.25Z"/>
    <path class="st18" d="M1777.21,966.33v27.61c-.14,0-.29,0-.43,0-.43-3.66.01-7.36-.39-11.01.18-5.21-.18-10.4-.32-15.6-.02-.79-.15-1.72,1.15-1.01Z"/>
    <path class="st12" d="M1758.37,974.36c-.1.53-.48.42-.79.26-1.24-.65-2.47-1.32-3.7-1.99-.34-.19-.59-.48-.4-.86.19-.37.54-.15.78-.02,1.24.65,2.47,1.33,3.7,2,.23.13.39.31.41.61Z"/>
    <path class="st23" d="M1816.1,932.62c-.09-.39-.22-.77-.25-1.17-.04-.58-.24-1.29.44-1.6.49-.23.83.24,1.05.62.39.67.37,1.36-.26,1.88-.24.2-.65.18-.98.26,0,0,0,0,0,0Z"/>
    <path class="st22" d="M1754.06,974.01c.54-.06,3.2,1.71,3.33,2.04.16.42-.09.65-.41.5-.99-.48-1.95-1.03-2.88-1.61-.14-.08-.13-.46-.13-.69,0-.13.11-.27.09-.23Z"/>
    <path class="st23" d="M1773.97,918.24c.63-.3,1.21.03,1.78.11.47.06.84.54.65,1.02-.24.61-.82.53-1.27.22-.48-.33-1.01-.67-1.15-1.35Z"/>
    <path class="st11" d="M1812.89,958.89c-1.45-1.66-2.89-3.31-4.33-4.98-.19-.22-.39-.5-.15-.81.16-.2.38-.11.51.05,1.45,1.82,3.17,3.43,4.36,5.45-.13.09-.26.19-.39.28Z"/>
    <path class="st11" d="M1808.63,959.85c.85.56,1.75,1.06,2.25,2.36-1.26-.58-2.27-.96-2.25-2.36Z"/>
    <path class="st11" d="M1808.61,962.32c.27.18.4.45.42.75.01.22-.13.42-.36.34-.3-.11-.44-.4-.42-.72.01-.21.1-.38.36-.37Z"/>
    <path class="st11" d="M1803.65,970.89c-.91,6.51-3.43,12.4-6.9,17.92-.59.94-1.26,1.82-1.9,2.72-.66-.59-.05-1.01.23-1.42,3.82-5.49,6.31-11.54,7.57-18.1.11-.57.04-1.31,1-1.12Z"/>
    <path class="st26" d="M1793.03,970.13c.12,1.57-.44,3.26-.7,5-.51,3.4-1.52,6.67-2.48,9.94-.69,2.33-1.91,4.52-3.11,6.66-.77,1.37-4.52,1.97-5.89,1.21-.41-.23-.55-.58-.54-1,.02-1.26-.17-2.57.12-3.76,1.14-4.59,1.46-9.23,1.04-13.91-.17-1.89,1.07-3.47.88-5.32-.02-.16.28-.46.49-.52,1.95-.53,3.6-2.18,5.86-1.57.35.09.69-.03,1.01-.23,1.96-1.18,3.3-.4,3.33,1.92,0,.45,0,.91,0,1.58Z"/>
    <path class="st29" d="M1781.51,959.99c-.19.66.37,2.01-.75,2-.94-.01-.74-1.35-.76-2.18-.02-.65.03-1.31.11-1.95.04-.3.23-.59.58-.61.37-.03.51.28.62.56.28.67.18,1.39.21,2.19Z"/>
    <path class="st23" d="M1758.18,930.52c-.79,2.36.36,3.98,2.07,5.47-1.21-.62-2.44-.82-3.74-.58-1.31.24-2.13,1.18-3.07,2.13,1.64-3.37.21-5.58-2.59-7.38,2.27,1.35,4.49,2,6.71.08.38-.3.6-.22.62.28Z"/>
    <path class="st23" d="M1751.04,923.14c.14.78.05,1.61.53,2.39-.85-.5-1.94,1.24-2.49-.22-.55-1.48-.39-1.54,1.96-2.17Z"/>
    <path class="st23" d="M1748.75,934.39c.12.78-.53.62-.89.72-.89.24-.66-.57-.76-.95-.21-.75.52-.6.87-.7.88-.24.55.6.78.94Z"/>
    <path class="st23" d="M1758.18,930.52c-.21-.09-.41-.19-.62-.28.41-.73.82-1.45,1.61-2.21.13,1.22-.6,1.79-.99,2.49Z"/>
    <text/>
    <path class="st31" d="M1816.72,998.67c1.54.93,2.88,1.73,4.21,2.54.62.38.67.74.11,1.32-2.6,2.66-2.59,2.67-3.71-.93-.27-.87-.64-1.71-.61-2.93Z"/>
    <circle class="st13" cx="1776.89" cy="949.63" r="53.28"/>
    <text class="st4" transform="translate(1704.35 985.41) rotate(2.43)"><tspan x="0" y="0">Y</tspan></text>
    <text class="st10" transform="translate(1717.37 1002.31) rotate(4.79) scale(1.19 1)"><tspan x="0" y="0">M</tspan></text>
    <text class="st9" transform="translate(1738.72 1021.88) rotate(4.8) scale(1.12 1)"><tspan x="0" y="0">C</tspan></text>
    <text class="st0" transform="translate(1799.27 1019.36) scale(1.19 1)"><tspan x="0" y="0">L</tspan></text>
    <text class="st0" transform="translate(1817.94 1006.04) scale(1.19 1)"><tspan x="0" y="0">L</tspan></text>
    <text class="st6" transform="translate(1831.67 985.94) scale(1.19 1)"><tspan x="0" y="0">C</tspan></text>
    <path class="st21" d="M1766.81,1016.49c1.72-.51,3.33-.57,4.91-.66,1.24-.07,1.95-.58,2.4-1.69.49-1.22,1.07-2.4,1.62-3.59.12-.26.16-.66.5-.69.45-.04.52.42.66.72.56,1.19,1.16,2.37,1.61,3.6.43,1.18,1.2,1.61,2.41,1.65,1.31.04,2.62.24,3.92.4.27.03.66-.04.77.33.11.35-.21.54-.42.74-.98.88-1.93,1.79-2.96,2.61-.93.75-1.22,1.55-.94,2.77.35,1.55.88,3.09.9,4.88-1.63-.62-2.98-1.5-4.33-2.34-1.07-.67-2.01-.72-3.08-.01-1.14.75-2.35,1.38-3.54,2.05-.25.14-.54.37-.82.1-.23-.21-.02-.47.03-.71.29-1.33.55-2.67.88-3.99.29-1.16.01-1.99-.94-2.78-1.22-1.01-2.5-1.99-3.58-3.38Z"/>
  </g>
</svg>